HIERARCHY
ROOT Hips
{
	OFFSET 0.000000 0.000000 0.000000 
	CHANNELS 6 Xposition Yposition Zposition Yrotation Zrotation Xrotation 
	JOINT Lumbar
	{
		OFFSET 0.000000 0.000000 0.000000 
		CHANNELS 3 Zrotation Xrotation Yrotation
		JOINT Neck
		{
			OFFSET 0.000000 0.445665 0.000000 
			CHANNELS 3 Zrotation Xrotation Yrotation
			End Site
			{
				OFFSET 0.000000 0.227535 0.000000 
			}
		}
		JOINT RightShoulder
		{
			OFFSET 0.019635 0.377685 0.194865 
			CHANNELS 3 Zrotation Xrotation Yrotation
			JOINT RightElbow
			{
				OFFSET 0.000000 -0.243375 0.000000 
				CHANNELS 2 Zrotation Yrotation
				JOINT RightWrist
				{
					OFFSET 0.000000 -0.264825 0.000000 
					CHANNELS 2 Zrotation Xrotation
					End Site
					{
						OFFSET 0.006600 -0.176220 0.000990 
					}
				}
			}
		}
		JOINT LeftShoulder
		{
			OFFSET 0.019635 0.377685 -0.194865 
			CHANNELS 3 Zrotation Xrotation Yrotation
			JOINT LeftElbow
			{
				OFFSET 0.000000 -0.243375 0.000000 
				CHANNELS 2 Zrotation Yrotation
				JOINT LeftWrist
				{
					OFFSET 0.000000 -0.264825 0.000000 
					CHANNELS 2 Zrotation Xrotation
					End Site
					{
						OFFSET 0.006600 -0.176220 -0.000990 
					}
				}
			}
		}
	}
	JOINT RightHip
	{
		OFFSET 0.052140 -0.069960 0.075570 
		CHANNELS 3 Zrotation Xrotation Yrotation
		JOINT RightKnee
		{
			OFFSET 0.000000 -0.402270 0.000000 
			CHANNELS 1 Zrotation
			JOINT RightAnkle
			{
				OFFSET 0.000000 -0.404085 0.000000 
				CHANNELS 3 Zrotation Xrotation Yrotation
				End Site
				{
					OFFSET 0.204105 -0.089430 0.008415 
				}
			}
		}
	}
	JOINT LeftHip
	{
		OFFSET 0.052140 -0.069960 -0.075570 
		CHANNELS 3 Zrotation Xrotation Yrotation
		JOINT LeftKnee
		{
			OFFSET 0.000000 -0.402270 0.000000 
			CHANNELS 1 Zrotation
			JOINT LeftAnkle
			{
				OFFSET 0.000000 -0.404085 0.000000 
				CHANNELS 3 Zrotation Xrotation Yrotation
				End Site
				{
					OFFSET 0.204105 -0.089430 -0.008415 
				}
			}
		}
	}
}
MOTION
Frames: 20
Frame Time: 0.02
0.15975 0.95571 0.09387 172.16704 0 -4.61196 -2.62456 5.34746 -2.99209 -24.03284 9.86351 5.99275 29.6673 -31.55458 48.11025 128.27071 46.19927 24.32025 -9.34554 36.06341 10.41752 -20.33607 20.95875 -91.66315 -13.8584 6.071 -0.79675 4.01277 2.56154 -11.16236 -1.05629 -3.89799 -7.80836 -0.81753 3.25664 3.49054 -8.88864 6.27554 3.75764 2.90354
0.16334 0.9558 0.09001 172.32051 0 -4.56135 -3.08004 5.52799 -3.00882 -23.93671 10.01945 6.12662 29.23906 -31.35073 48.85105 129.09806 46.21564 24.3245 -9.33539 35.26333 10.01704 -20.28601 20.0878 -90.23275 -12.73466 5.89143 -0.87169 4.18866 2.31861 -10.72986 -1.20134 -3.8606 -7.74465 -0.42052 3.46183 3.40032 -9.27062 6.23193 3.63819 2.82146
0.16715 0.95581 0.08607 172.53811 0 -4.49583 -3.56742 5.71322 -2.99724 -23.94161 10.12809 6.24452 28.80204 -31.18042 49.22688 129.4878 46.41423 24.03257 -9.33732 34.52336 9.61111 -20.24013 19.41551 -88.88118 -11.81396 5.69071 -0.96855 4.34274 1.93819 -10.25298 -1.3286 -3.81516 -7.58909 0.0454 3.66304 3.29618 -9.74267 6.2077 3.47149 2.68917
0.17087 0.95585 0.08215 172.73342 0 -4.43907 -4.03987 5.89863 -3.00029 -23.90419 10.25708 6.37099 28.38917 -31.00567 49.77247 130.06087 46.51076 23.88433 -9.31948 33.75962 9.20942 -20.1905 18.66626 -87.51711 -10.81076 5.4989 -1.0538 4.5109 1.6298 -9.80002 -1.465 -3.77621 -7.48826 0.48669 3.86913 3.19673 -10.1828 6.17685 3.32827 2.57385
0.17457 0.95591 0.07828 172.89908 0 -4.37344 -4.51779 6.07408 -2.99556 -23.85167 10.39062 6.49303 27.89353 -30.7806 50.29663 130.67503 46.72884 23.67414 -9.35175 32.96513 8.80218 -20.14416 17.88338 -86.02304 -9.74615 5.30671 -1.14337 4.66294 1.28947 -9.3348 -1.59753 -3.72709 -7.34154 0.90092 4.06254 3.105 -10.58589 6.13642 3.1769 2.48332
0.17837 0.95591 0.07428 173.14243 0 -4.32307 -4.99023 6.27133 -3.00034 -23.8532 10.50373 6.62 27.56401 -30.66893 50.77834 131.1091 46.73028 23.52919 -9.28907 32.25437 8.4051 -20.09388 17.2094 -84.82977 -8.86509 5.11131 -1.23006 4.84293 0.97826 -8.88336 -1.73334 -3.6963 -7.26391 1.38766 4.28131 2.99259 -11.08729 6.12075 3.03097 2.32939
0.18239 0.95577 0.06996 173.57931 0 -4.31684 -5.4427 6.52926 -3.0395 -23.9964 10.56973 6.76533 27.73705 -30.87728 51.26073 131.15219 45.97846 23.66858 -8.9279 31.76859 8.02982 -20.02893 16.78324 -84.45837 -8.44568 4.9157 -1.30462 5.10396 0.80068 -8.47908 -1.88667 -3.72135 -7.41518 2.05438 4.57089 2.83867 -11.83556 6.16767 2.9141 2.01032
0.1865 0.95557 0.06551 174.09304 0 -4.3268 -5.88725 6.80863 -3.08899 -24.18766 10.61716 6.91579 28.0707 -31.19681 51.70888 131.03251 45.01421 23.88213 -8.47752 31.36596 7.66613 -19.96064 16.45745 -84.38962 -8.20632 4.71759 -1.37567 5.39386 0.65287 -8.09018 -2.04308 -3.76441 -7.63537 2.79181 4.88602 2.66225 -12.67952 6.23896 2.80392 1.62971
0.19057 0.95538 0.0611 174.57531 0 -4.3305 -6.33335 7.07732 -3.13308 -24.34572 10.67464 7.06328 28.30278 -31.45626 52.15482 130.99166 44.21441 24.04413 -8.09148 30.92177 7.30151 -19.89677 16.08508 -84.18006 -7.88422 4.51872 -1.44803 5.67134 0.47723 -7.69462 -2.19545 -3.79675 -7.81238 3.49925 5.18966 2.48813 -13.48171 6.29993 2.68896 1.27858
0.19466 0.95525 0.05675 175.04582 0 -4.32919 -6.79039 7.3505 -3.17939 -24.55466 10.72393 7.21323 28.65232 -31.75652 52.66225 130.91565 43.14158 24.26883 -7.60722 30.49446 6.91778 -19.82221 15.72368 -83.98651 -7.57169 4.32656 -1.52252 5.94532 0.35597 -7.29541 -2.35858 -3.83909 -8.0355 4.20129 5.49309 2.34677 -14.28158 6.3588 2.57943 0.91873
0.19872 0.95499 0.05226 175.55745 0 -4.34219 -7.22094 7.61885 -3.22361 -24.66845 10.78618 7.35911 28.79908 -31.99849 53.03906 130.8787 42.5764 24.38682 -7.30373 30.05207 6.57749 -19.76721 15.36116 -83.8305 -7.28069 4.12073 -1.59118 6.23349 0.13195 -6.90899 -2.49994 -3.86552 -8.18124 4.92891 5.80254 2.13225 -15.10564 6.42707 2.46113 0.56384
0.20275 0.95443 0.04744 176.17015 0 -4.39206 -7.59148 7.8728 -3.2619 -24.50168 10.89164 7.49564 28.31601 -32.04616 53.05863 131.00395 43.53165 24.17403 -7.54317 29.53998 6.34741 -19.78367 14.96473 -83.70615 -6.99416 3.87282 -1.64689 6.55559 -0.39658 -6.54618 -2.58328 -3.83888 -8.08743 5.72218 6.12677 1.71961 -15.99054 6.51948 2.31417 0.23134
0.20675 0.95376 0.04249 176.81988 0 -4.45552 -7.93314 8.12023 -3.29736 -24.23852 11.01045 7.62737 27.62942 -32.03233 52.95069 131.17383 44.99192 23.85577 -7.96364 29.01152 6.16196 -19.81706 14.56402 -83.60851 -6.72422 3.61233 -1.69627 6.89062 -1.026 -6.19759 -2.64416 -3.79652 -7.91583 6.53569 6.45527 1.2348 -16.89222 6.61953 2.15891 -0.09264
0.21072 0.95314 0.03761 177.44841 0 -4.51205 -8.28075 8.36799 -3.33275 -24.02246 11.12157 7.75929 27.05569 -32.05051 52.90626 131.31591 46.1758 23.59973 -8.28661 28.49475 5.96058 -19.83145 14.16807 -83.49692 -6.45286 3.36085 -1.74701 7.21881 -1.60023 -5.84771 -2.71351 -3.76446 -7.78582 7.33201 6.77905 0.78376 -17.77502 6.71338 2.00949 -0.41606
0.21487 0.95251 0.03268 178.09889 0 -4.57261 -8.65926 8.62806 -3.37444 -23.7926 11.23905 7.89981 26.40017 -32.0554 52.83698 131.4833 47.54903 23.28761 -8.67013 27.96099 5.74117 -19.89242 13.7631 -83.40334 -6.16189 3.09511 -1.80425 7.55261 -2.21451 -5.4758 -2.79024 -3.71967 -7.63052 8.16621 7.11582 0.32652 -18.71101 6.82002 1.85145 -0.76026
0.21864 0.95187 0.02783 178.71046 0 -4.62743 -8.96555 8.86012 -3.40194 -23.57001 11.34645 8.0212 25.86634 -32.07195 52.78961 131.61132 48.65219 23.06397 -8.97249 27.46013 5.56984 -19.86173 13.37556 -83.27493 -5.91354 2.85643 -1.84621 7.87676 -2.76771 -5.15384 -2.8463 -3.69749 -7.51019 8.92332 7.42576 -0.133 -19.53606 6.90102 1.70941 -1.05847
0.22143 0.9512 0.02315 179.21358 0 -4.66619 -9.08874 9.02087 -3.39327 -23.37333 11.4251 8.09091 25.70279 -32.13494 52.83499 131.61613 48.87253 23.13081 -8.99976 27.03284 5.51982 -19.56288 13.02812 -83.04019 -5.77613 2.69322 -1.84986 8.17635 -3.14574 -4.95902 -2.84975 -3.74057 -7.48986 9.47989 7.6643 -0.59542 -20.0746 6.91328 1.61295 -1.23015
0.22384 0.95053 0.01856 179.67439 0 -4.69807 -9.13852 9.15274 -3.37001 -23.19058 11.49286 8.14149 25.67102 -32.21143 52.9068 131.5813 48.8073 23.28627 -8.94079 26.64316 5.51664 -19.17336 12.69973 -82.76877 -5.68071 2.55827 -1.8379 8.46458 -3.45635 -4.81539 -2.8332 -3.80686 -7.50918 9.95456 7.87482 -1.05504 -20.49594 6.89861 1.53299 -1.35568
0.22639 0.94988 0.01397 180.14888 0 -4.73094 -9.21591 9.29479 -3.35181 -23.01257 11.5641 8.20083 25.58804 -32.2816 52.96609 131.56785 48.88263 23.38737 -8.9262 26.24929 5.49242 -18.83238 12.36781 -82.5148 -5.56673 2.41177 -1.8316 8.75448 -3.78501 -4.65293 -2.82665 -3.86336 -7.52128 10.45504 8.09566 -1.50622 -20.95473 6.89358 1.44585 -1.50328
0.22908 0.94916 0.00922 180.64807 0 -4.77319 -9.31665 9.44897 -3.3399 -22.78359 11.64179 8.25982 25.46061 -32.35018 53.02321 131.5417 48.92962 23.54398 -8.89609 25.79882 5.46901 -18.46057 12.01336 -82.25806 -5.45079 2.25885 -1.83123 9.05984 -4.16702 -4.4718 -2.81608 -3.91689 -7.48845 11.00452 8.32706 -2.00019 -21.48095 6.89981 1.35701 -1.64658
